<svg id="Calque_1" data-name="Calque 1" xmlns="http://www.w3.org/2000/svg" xmlns:xlink="http://www.w3.org/1999/xlink" viewBox="0 0 57.41 68.04"><defs><style>.cls-1{fill:#706f6f;}.cls-2{fill:#1d1d1b;}.cls-3{fill:url(#Dégradé_sans_nom);}</style><linearGradient id="Dégradé_sans_nom" x1="391.44" y1="376.22" x2="391.44" y2="376.22" gradientUnits="userSpaceOnUse"><stop offset="0" stop-color="#fff"/><stop offset="1"/></linearGradient></defs><path class="cls-1" d="M451.44,378" transform="translate(-261.59 -242.44)"/><path class="cls-1" d="M251.44,461.56" transform="translate(-261.59 -242.44)"/><path class="cls-1" d="M346.78,280.89" transform="translate(-261.59 -242.44)"/><path class="cls-2" d="M319,242.44H298.84v6.45h5.94l.22,36.44-30.22-40.66-7.11.17q0,28.52.07,57h-6.15v6.44h20.15v-6.44h-5.8l.39-40.33,26,34.89,11.15,14-6.21-18.07.67-.27,6.19,17.91c-.27-17.07-.71-49.63-.84-61.17H319Z" transform="translate(-261.59 -242.44)"/><path class="cls-3" d="M391.44,376.22" transform="translate(-261.59 -242.44)"/></svg>